# Blender v2.78 (sub 0) OBJ File: '9.blend'
# www.blender.org
mtllib Cricket_Bat_01.mtl
g Cube_Cube.027
v -0.094895 0.000000 1.208510
v -0.185737 7.922780 1.208510
v -0.094895 0.000000 -1.208510
v -0.185737 7.922780 -1.208510
v 0.312716 0.000000 1.208510
v 0.312716 7.922780 1.208510
v 0.312716 0.000000 -1.208510
v 0.312716 7.922780 -1.208510
v -0.308521 8.329134 0.294169
v -0.308521 8.329134 -0.294169
v 0.167993 8.329134 -0.294169
v 0.167993 8.329134 0.294169
v -0.308521 14.255134 0.294169
v -0.308521 14.255134 -0.294169
v 0.167993 14.255134 -0.294169
v 0.167993 14.255134 0.294169
v 0.006689 0.000000 -1.208510
v -0.084154 7.922780 -1.208510
v 0.006689 0.000000 1.208510
v -0.084154 7.922780 1.208510
v -0.084154 8.329134 -0.388230
v -0.084154 8.329134 0.388230
v -0.084154 14.255134 -0.388230
v -0.084154 14.255134 0.388230
v -0.352001 -0.433374 0.000000
v -0.442844 7.922780 0.000000
v 0.312716 -0.547049 0.000000
v 0.312716 7.922780 0.000000
v -0.438649 8.329134 0.000000
v 0.308521 8.329134 0.000000
v -0.438649 14.255134 0.000000
v 0.308521 14.255134 0.000000
v -0.630213 14.557224 -0.000000
v 0.006689 -0.547049 0.000000
v -0.302995 2.377977 1.208510
v -0.302995 2.377977 -1.208510
v 0.312716 2.377977 -1.208510
v 0.312716 2.377977 1.208510
v -0.084154 2.377977 1.208510
v -0.084154 2.377977 -1.208510
v 0.312716 2.377977 0.000000
v -0.560101 2.377977 0.000000
v -0.630213 14.288700 -0.000000
v -0.434912 14.288700 -0.441498
v -0.083540 14.288700 -0.582669
v 0.297924 14.288700 -0.441498
v 0.491163 14.288700 -0.000000
v 0.297924 14.288700 0.441498
v -0.083540 14.288700 0.582669
v -0.434912 14.288700 0.441498
v -0.434912 14.557224 -0.441498
v -0.083540 14.557224 -0.582669
v 0.297924 14.557224 -0.441498
v 0.491163 14.557224 -0.000000
v 0.297924 14.557224 0.441498
v -0.083540 14.557224 0.582669
v -0.434912 14.557224 0.441498
v -0.406487 14.690857 -0.000000
v -0.519568 14.571494 -0.000000
v -0.363131 14.571494 -0.353643
v -0.081679 14.571494 -0.466721
v 0.223876 14.571494 -0.353643
v 0.378662 14.571494 -0.000000
v 0.223876 14.571494 0.353643
v -0.081679 14.571494 0.466721
v -0.363131 14.571494 0.353643
v -0.289737 14.690857 -0.263926
v -0.079687 14.690857 -0.348318
v 0.148350 14.690857 -0.263926
v 0.263868 14.690857 -0.000000
v 0.148350 14.690857 0.263926
v -0.079687 14.690857 0.348318
v -0.289737 14.690857 0.263926
v -0.079687 14.690857 -0.000000
v 0.142168 11.375174 -0.262572
v -0.082895 11.375174 -0.346531
v -0.283163 11.375174 0.262572
v -0.082895 11.375174 0.346531
v -0.283163 11.375174 -0.262572
v -0.399314 11.375174 0.000000
v 0.142168 11.375174 0.262572
v 0.267602 11.375174 0.000000
v 0.142168 13.669670 -0.262572
v 0.142168 9.080677 -0.262572
v 0.142168 13.669670 0.262572
v 0.142168 9.080677 0.262572
v -0.283163 13.669670 0.262572
v -0.283163 9.080677 0.262572
v -0.283163 13.669670 -0.262572
v -0.283163 9.080677 -0.262572
v -0.082895 9.080677 -0.346531
v -0.082895 13.669670 -0.346531
v -0.082895 9.080677 0.346531
v -0.082895 13.669670 0.346531
v -0.399314 9.080677 0.000000
v -0.399314 13.669670 0.000000
v 0.267602 9.080677 0.000000
v 0.267602 13.669670 0.000000
vn -0.9779 0.0207 -0.2080
vn 0.0000 0.0000 -1.0000
vn 1.0000 0.0000 0.0000
vn 0.0000 0.0000 1.0000
vn 0.0000 -0.9110 0.4124
vn -0.1236 0.8952 -0.4282
vn 0.9570 0.2760 -0.0895
vn -0.9591 0.1381 0.2472
vn 0.0608 0.9058 0.4193
vn 0.1737 -0.9816 0.0788
vn 0.0628 -0.9836 0.1692
vn -0.1236 0.8952 0.4282
vn 0.0608 0.9058 -0.4193
vn -0.2211 -0.8953 0.3867
vn -0.2211 -0.8953 -0.3867
vn -0.1721 -0.9821 0.0761
vn 0.0628 -0.9836 -0.1692
vn -0.9591 0.1381 -0.2472
vn 0.9570 0.2760 0.0895
vn 0.0000 -0.9110 -0.4124
vn -0.9779 0.0207 0.2080
vn -0.9722 -0.0780 0.2208
vn -0.9722 -0.0780 -0.2208
vn 0.3471 0.0000 -0.9378
vn -0.3728 0.0000 0.9279
vn 0.3471 0.0000 0.9378
vn -0.9145 0.0000 0.4045
vn -0.1721 -0.9821 -0.0761
vn 0.1737 -0.9816 -0.0788
vn -0.0686 -0.9834 -0.1679
vn -0.0686 -0.9834 0.1679
vn 0.0454 0.9914 0.1228
vn -0.1277 0.9902 0.0565
vn -0.1277 0.9902 -0.0565
vn 0.1256 0.9905 0.0550
vn 0.9161 0.0000 -0.4010
vn -0.3728 0.0000 -0.9279
vn 0.9161 0.0000 0.4010
vn -0.9145 0.0000 -0.4045
vn -0.6912 0.6548 -0.3058
vn 0.6874 0.6611 0.3009
vn -0.2734 0.6797 -0.6806
vn 0.6874 0.6611 -0.3009
vn -0.0487 0.9914 0.1212
vn 0.0454 0.9914 -0.1228
vn 0.1256 0.9905 -0.0550
vn -0.0487 0.9914 -0.1212
vn 0.0000 1.0000 0.0000
vn -0.6912 0.6548 0.3058
vn 0.2548 0.6789 0.6886
vn -0.2734 0.6797 0.6806
vn 0.2548 0.6789 -0.6886
vn 0.3491 0.0513 -0.9357
vn -0.3861 0.0517 0.9210
vn 0.9012 0.0491 -0.4305
vn -0.9135 0.0478 0.4041
vn -0.3861 0.0517 -0.9210
vn 0.3491 0.0513 0.9357
vn 0.9023 0.0000 -0.4311
vn -0.9135 0.0478 -0.4041
vn 0.9012 0.0491 0.4305
vn 0.3495 0.0000 0.9369
vn -0.3866 0.0000 -0.9222
vn 0.3495 0.0000 -0.9369
vn -0.3866 0.0000 0.9222
vn 0.9023 0.0000 0.4311
vn 0.9005 -0.0629 0.4302
vn -0.9128 -0.0613 -0.4038
vn 0.3488 -0.0658 0.9349
vn -0.3858 -0.0664 -0.9202
vn -0.3858 -0.0664 0.9202
vn 0.3488 -0.0658 -0.9349
vn -0.9128 -0.0613 0.4038
vn 0.9005 -0.0629 -0.4302
usemtl DD9944
s off
f 42//1 26//1 4//1 36//1
f 40//2 18//2 8//2 37//2
f 41//3 28//3 6//3 38//3
f 39//4 20//4 2//4 35//4
f 34//5 27//5 5//5 19//5
f 18//6 4//6 10//6 21//6
f 28//7 8//7 11//7 30//7
f 26//8 2//8 9//8 29//8
f 20//9 6//9 12//9 22//9
f 16//10 32//10 47//10 48//10
f 24//11 16//11 48//11 49//11
f 2//12 20//12 22//12 9//12
f 8//13 18//13 21//13 11//13
f 25//14 34//14 19//14 1//14
f 38//4 6//4 20//4 39//4
f 36//2 4//2 18//2 40//2
f 3//15 17//15 34//15 25//15
f 31//16 13//16 50//16 43//16
f 15//17 23//17 45//17 46//17
f 4//18 26//18 29//18 10//18
f 6//19 28//19 30//19 12//19
f 17//20 7//20 27//20 34//20
f 37//3 8//3 28//3 41//3
f 35//21 2//21 26//21 42//21
f 1//22 35//22 42//22 25//22
f 7//3 37//3 41//3 27//3
f 3//2 36//2 40//2 17//2
f 5//4 38//4 39//4 19//4
f 19//4 39//4 35//4 1//4
f 27//3 41//3 38//3 5//3
f 17//2 40//2 37//2 7//2
f 25//23 42//23 36//23 3//23
f 46//24 45//24 52//24 53//24
f 50//25 49//25 56//25 57//25
f 49//26 48//26 55//26 56//26
f 43//27 50//27 57//27 33//27
f 14//28 31//28 43//28 44//28
f 32//29 15//29 46//29 47//29
f 23//30 14//30 44//30 45//30
f 13//31 24//31 49//31 50//31
f 56//32 55//32 64//32 65//32
f 33//33 57//33 66//33 59//33
f 51//34 33//34 59//34 60//34
f 55//35 54//35 63//35 64//35
f 47//36 46//36 53//36 54//36
f 45//37 44//37 51//37 52//37
f 48//38 47//38 54//38 55//38
f 44//39 43//39 33//39 51//39
f 60//40 59//40 58//40 67//40
f 64//41 63//41 70//41 71//41
f 61//42 60//42 67//42 68//42
f 63//43 62//43 69//43 70//43
f 57//44 56//44 65//44 66//44
f 53//45 52//45 61//45 62//45
f 54//46 53//46 62//46 63//46
f 52//47 51//47 60//47 61//47
f 74//48 58//48 73//48 72//48
f 70//48 74//48 72//48 71//48
f 69//48 68//48 74//48 70//48
f 68//48 67//48 58//48 74//48
f 59//49 66//49 73//49 58//49
f 65//50 64//50 71//50 72//50
f 66//51 65//51 72//51 73//51
f 62//52 61//52 68//52 69//52
usemtl 1A1A1A
f 11//53 21//53 91//53 84//53
f 9//54 22//54 93//54 88//54
f 30//55 11//55 84//55 97//55
f 29//56 9//56 88//56 95//56
f 21//57 10//57 90//57 91//57
f 22//58 12//58 86//58 93//58
f 83//59 98//59 82//59 75//59
f 10//60 29//60 95//60 90//60
f 12//61 30//61 97//61 86//61
f 87//27 96//27 80//27 77//27
f 85//62 94//62 78//62 81//62
f 89//63 92//63 76//63 79//63
f 92//64 83//64 75//64 76//64
f 94//65 87//65 77//65 78//65
f 96//39 89//39 79//39 80//39
f 98//66 85//66 81//66 82//66
usemtl F44336
f 85//67 98//67 32//67 16//67
f 89//68 96//68 31//68 14//68
f 94//69 85//69 16//69 24//69
f 92//70 89//70 14//70 23//70
f 87//71 94//71 24//71 13//71
f 83//72 92//72 23//72 15//72
f 96//73 87//73 13//73 31//73
f 82//66 81//66 86//66 97//66
f 80//39 79//39 90//39 95//39
f 78//65 77//65 88//65 93//65
f 76//64 75//64 84//64 91//64
f 79//63 76//63 91//63 90//63
f 81//62 78//62 93//62 86//62
f 77//27 80//27 95//27 88//27
f 75//59 82//59 97//59 84//59
f 98//74 83//74 15//74 32//74
